:SAMPLES-PER-SECOND 30
:FULLY-SPECIFIED
:DEGREES
84
root  -46.3442 36.8745 4.11068 -7.42703 -76.6913 -4.16656
RightUpLeg  -23.0089 -15.8285 -3.20986
RightLeg  30.8869 4.85412 2.88415
RightFoot  5.05378 0.243221 -1.43936
RightToes  5.47152e-009 0 -3.6325e-017
Spine  14.2957 -5.55294 11.0189
Spine1  9.72209 -2.79259 -4.23603
HEad  -14.1761 -6.67973 -2.13429
LeftShoulder1  1.44916 -5.50501 -8.62592
LeftArm  -5.42324 -70.7038 -54.7055
LeftForeArm  0.302058 -8.44059 -3.33272
LeftHand  -0.0521223 7.15378 -0.852671
RightShoulder  0.43927 0.49227 2.92309
RightArm  -33.4842 69.4296 8.32474
RightForeArm  -17.675 -4.94474 0.956307
RightHand  -0.0736762 -0.277533 -1.63083
LeftUpLeg  -0.933095 -1.71199 6.2555
LeftLeg  61.6063 -0.0692402 0.456105
LeftFoot  -6.35446 0.305708 -5.82235
LeftToes  -4.29285e-010 1.49941e-010 2.15559e-012
85
root  -47.182 37.0997 3.84933 -8.30524 -76.2755 -2.53387
RightUpLeg  -22.7889 -15.4187 -3.13116
RightLeg  31.7897 4.08289 2.47726
RightFoot  3.39931 0.248511 -1.73528
RightToes  5.47152e-009 0 -3.6325e-017
Spine  15.6922 -5.61578 11.089
Spine1  9.23185 -2.80837 -4.08527
HEad  -15.9131 -7.11359 -1.466
LeftShoulder1  1.46804 -5.8563 -8.18295
LeftArm  -6.7634 -71.7333 -53.1557
LeftForeArm  -4.12831 -7.92333 -3.01034
LeftHand  -0.0921543 7.8674 -2.05017
RightShoulder  0.444991 0.693012 2.40963
RightArm  -35.8453 69.0084 6.78375
RightForeArm  -20.7814 -5.34399 0.472183
RightHand  -0.0136781 -0.644612 -0.274628
LeftUpLeg  -5.54105 -0.178423 6.06249
LeftLeg  65.6475 1.31536 3.82366
LeftFoot  -5.20449 0.18397 -2.73389
LeftToes  -4.29285e-010 1.49941e-010 2.15559e-012
86
root  -47.9377 37.5612 3.65727 -10.8571 -76.426 1.36945
RightUpLeg  -22.2564 -15.4087 -3.44561
RightLeg  30.6296 4.49108 2.62097
RightFoot  3.06184 0.253111 -1.83878
RightToes  5.47152e-009 0 -3.6325e-017
Spine  15.9428 -5.37964 11.269
Spine1  9.55831 -2.45823 -4.68148
HEad  -17.1967 -7.66915 -1.13484
LeftShoulder1  1.51391 -6.06274 -8.34618
LeftArm  -8.38668 -71.8064 -51.4349
LeftForeArm  -7.70988 -9.03259 -2.90054
LeftHand  -0.168668 8.8759 -3.8306
RightShoulder  0.447705 0.856585 1.8266
RightArm  -37.7414 68.4165 6.1802
RightForeArm  -24.0519 -5.3147 -0.0932714
RightHand  0.0481703 -0.370668 1.17374
LeftUpLeg  -9.59465 1.49338 4.62623
LeftLeg  65.8224 1.53488 4.45796
LeftFoot  -5.87328 0.166156 -2.77541
LeftToes  -4.29285e-010 1.49941e-010 2.15559e-012
87
root  -48.681 38.0618 3.50613 -13.7955 -77.0682 5.69318
RightUpLeg  -21.0714 -14.8515 -3.63743
RightLeg  27.9865 4.61828 2.41981
RightFoot  2.75659 0.296319 -2.24144
RightToes  5.47152e-009 0 -3.6325e-017
Spine  16.5209 -4.89677 11.1256
Spine1  8.90092 -1.98896 -4.99992
HEad  -17.5168 -8.23654 -1.15856
LeftShoulder1  1.55551 -6.34689 -8.30623
LeftArm  -9.34607 -70.5396 -50.4883
LeftForeArm  -11.2158 -10.9626 -3.06867
LeftHand  -0.190065 9.04114 -4.25
RightShoulder  0.449671 1.15095 1.33181
RightArm  -37.1712 67.4611 7.07699
RightForeArm  -28.0117 -4.95707 -0.083384
RightHand  0.0633699 -0.527636 1.5732
LeftUpLeg  -12.7205 2.95548 3.00753
LeftLeg  62.8946 0.80278 2.37298
LeftFoot  -6.7175 0.210525 -4.19481
LeftToes  -4.29285e-010 1.49941e-010 2.15559e-012
88
root  -49.3656 38.5318 3.38242 -15.073 -77.3665 8.57211
RightUpLeg  -20.1985 -14.5052 -3.63607
RightLeg  25.2622 4.8174 2.23962
RightFoot  2.81724 0.250068 -1.85744
RightToes  5.47152e-009 0 -3.6325e-017
Spine  16.4 -4.46784 11.0003
Spine1  8.58231 -1.80777 -4.65434
HEad  -17.4326 -8.14247 -1.50947
LeftShoulder1  1.59786 -6.33043 -8.81795
LeftArm  -9.07196 -68.9807 -50.0588
LeftForeArm  -14.6911 -13.4543 -3.80187
LeftHand  -0.178732 9.18396 -3.7675
RightShoulder  0.449041 1.34587 0.948068
RightArm  -36.065 66.3771 7.91726
RightForeArm  -30.2223 -3.20143 0.20402
RightHand  0.119048 -0.0353481 2.60895
LeftUpLeg  -15.519 3.47379 1.60194
LeftLeg  57.916 -0.443875 -0.212097
LeftFoot  -7.23093 0.221397 -4.97217
LeftToes  -4.29285e-010 1.49941e-010 2.15559e-012
89
root  -50.0519 38.968 3.30289 -14.4747 -77.0806 8.63339
RightUpLeg  -18.0789 -15.2765 -3.59813
RightLeg  22.2761 5.27422 2.39716
RightFoot  3.01687 0.246994 -1.79653
RightToes  5.47152e-009 0 -3.6325e-017
Spine  16.0754 -4.48924 11.4345
Spine1  9.17806 -1.81677 -4.89121
HEad  -17.4204 -8.63253 -1.2189
LeftShoulder1  1.59014 -6.38711 -8.62662
LeftArm  -8.81113 -67.497 -50.2026
LeftForeArm  -17.3222 -15.9855 -4.321
LeftHand  -0.186836 8.5383 -4.86713
RightShoulder  0.449212 0.945575 1.88037
RightArm  -34.9632 65.4618 8.24793
RightForeArm  -32.0265 0.25532 0.851015
RightHand  0.130566 -0.212913 2.96264
LeftUpLeg  -16.7171 3.32837 1.07496
LeftLeg  51.6461 -1.61109 -1.76253
LeftFoot  -7.95654 0.233824 -6.30932
LeftToes  -4.29285e-010 1.49941e-010 2.15559e-012
90
root  -50.6978 39.3362 3.21476 -14.1729 -76.4863 9.2619
RightUpLeg  -16.3706 -14.7383 -4.08802
RightLeg  19.5582 4.27604 2.48564
RightFoot  3.08875 0.228152 -1.63419
RightToes  5.47152e-009 0 -3.6325e-017
Spine  15.7217 -4.46142 10.8531
Spine1  8.96289 -2.22421 -4.15413
HEad  -16.7377 -9.11502 -0.98426
LeftShoulder1  1.59663 -6.30416 -8.85137
LeftArm  -8.81386 -65.4048 -50.7145
LeftForeArm  -21.1968 -18.7564 -4.91217
LeftHand  -0.185115 9.06598 -4.0527
RightShoulder  0.462928 1.02602 2.02826
RightArm  -33.0572 63.7283 9.93955
RightForeArm  -32.6025 4.70868 1.3216
RightHand  0.179152 -0.179028 4.03304
LeftUpLeg  -17.5598 2.39225 0.584226
LeftLeg  44.4577 -2.20983 -1.91198
LeftFoot  -8.59476 0.224826 -7.20084
LeftToes  -4.29285e-010 1.49941e-010 2.15559e-012
91
root  -51.3183 39.5852 3.14337 -13.7258 -76.0915 9.22351
RightUpLeg  -14.6553 -13.7527 -4.42963
RightLeg  17.7246 3.14329 2.51962
RightFoot  2.71469 0.20467 -1.50917
RightToes  5.47152e-009 0 -3.6325e-017
Spine  15.7317 -4.41855 10.6481
Spine1  8.62244 -2.36129 -3.90233
HEad  -15.7106 -9.69878 -0.556557
LeftShoulder1  1.58125 -6.21296 -8.84886
LeftArm  -8.44353 -63.1001 -51.9195
LeftForeArm  -21.3179 -21.6008 -5.55969
LeftHand  -0.165242 9.1216 -3.40393
RightShoulder  0.464087 0.861912 2.50906
RightArm  -31.1749 61.6858 11.3595
RightForeArm  -33.8475 8.84964 1.84233
RightHand  0.136693 -1.28248 4.11045
LeftUpLeg  -17.7341 1.16042 0.603449
LeftLeg  37.8131 -3.39134 -2.45748
LeftFoot  -8.59076 0.220037 -7.02387
LeftToes  -4.29285e-010 1.49941e-010 2.15559e-012
92
root  -51.8971 39.7739 3.1328 -13.9495 -76.2491 9.49094
RightUpLeg  -13.011 -13.4288 -4.70016
RightLeg  16.4867 3.13448 2.88481
RightFoot  2.33119 0.168251 -1.26839
RightToes  5.47152e-009 0 -3.6325e-017
Spine  15.4996 -4.30546 10.5544
Spine1  8.95057 -2.28219 -3.99942
HEad  -15.0252 -9.89983 -0.217295
LeftShoulder1  1.5417 -5.71031 -9.35215
LeftArm  -8.30824 -60.5254 -52.8574
LeftForeArm  -21.6854 -25.063 -6.39403
LeftHand  -0.161821 8.84856 -3.59885
RightShoulder  0.455962 0.510562 3.3243
RightArm  -29.6087 59.5779 12.5296
RightForeArm  -34.8642 13.0833 2.69312
RightHand  0.152128 -1.20603 4.45366
LeftUpLeg  -17.7426 -0.0909401 0.78131
LeftLeg  32.7274 -4.82513 -2.98751
LeftFoot  -8.30445 0.231518 -6.85158
LeftToes  -4.29285e-010 1.49941e-010 2.15559e-012
93
root  -52.4446 39.8911 3.14673 -13.0873 -76.2224 8.67419
RightUpLeg  -11.7973 -13.1532 -4.71673
RightLeg  15.9439 2.94416 3.07126
RightFoot  1.6608 0.124487 -0.994061
RightToes  5.47152e-009 0 -3.6325e-017
Spine  14.88 -4.23269 10.7823
Spine1  9.55634 -2.23998 -4.03178
HEad  -14.0922 -10.7188 0.262186
LeftShoulder1  1.5401 -5.32052 -10.1776
LeftArm  -7.05002 -57.9288 -53.3563
LeftForeArm  -22.616 -28.6201 -7.29211
LeftHand  -0.169148 8.87299 -3.78295
RightShoulder  0.459159 0.393448 3.81854
RightArm  -28.7204 56.2919 13.34
RightForeArm  -35.3121 17.9919 4.27673
RightHand  0.154463 -1.26836 4.57871
LeftUpLeg  -18.381 -1.14269 1.26381
LeftLeg  29.7179 -6.36618 -3.59061
LeftFoot  -8.23262 0.248803 -7.34565
LeftToes  -4.29285e-010 1.49941e-010 2.15559e-012
94
root  -52.9425 39.9884 3.21717 -12.1238 -76.5729 7.51685
RightUpLeg  -10.5302 -12.917 -4.6173
RightLeg  15.532 3.39577 3.31859
RightFoot  1.20259 0.0970701 -0.807236
RightToes  5.47152e-009 0 -3.6325e-017
Spine  14.6223 -4.17811 10.7815
Spine1  9.77397 -2.30499 -3.70933
HEad  -12.9005 -11.5439 0.394049
LeftShoulder1  1.55703 -4.61576 -12.0636
LeftArm  -5.04946 -55.6091 -53.1985
LeftForeArm  -22.7174 -31.8682 -8.15163
LeftHand  -0.127912 8.65157 -2.72731
RightShoulder  0.451052 0.146305 4.4676
RightArm  -27.0727 53.7218 14.2934
RightForeArm  -36.3226 22.5013 6.15726
RightHand  0.108874 -1.55171 3.60587
LeftUpLeg  -19.1387 -1.28631 1.83329
LeftLeg  28.3213 -7.03687 -3.76644
LeftFoot  -7.93325 0.28384 -7.93013
LeftToes  -4.29285e-010 1.49941e-010 2.15559e-012
95
root  -53.4171 40.0825 3.33778 -13.339 -77.4436 8.12927
RightUpLeg  -8.94556 -12.6556 -4.83543
RightLeg  15.2016 4.34844 3.40248
RightFoot  0.592309 0.0337984 -0.282777
RightToes  5.47152e-009 0 -3.6325e-017
Spine  14.5988 -4.00874 10.3945
Spine1  10.436 -2.14827 -3.65845
HEad  -11.5321 -12.2407 0.49406
LeftShoulder1  1.5794 -4.32175 -13.176
LeftArm  -5.13101 -52.7696 -52.6466
LeftForeArm  -22.5445 -35.2112 -9.10147
LeftHand  -0.116217 9.11779 -1.96442
RightShoulder  0.462459 0.0219665 5.34822
RightArm  -25.0413 51.3159 15.2165
RightForeArm  -38.0084 26.6829 7.4081
RightHand  0.118905 -1.01794 3.33437
LeftUpLeg  -19.2724 -0.833903 2.13672
LeftLeg  27.4001 -7.2181 -3.71833
LeftFoot  -7.43649 0.341183 -8.69361
LeftToes  -4.29285e-010 1.49941e-010 2.15559e-012
96
root  -53.8549 40.0962 3.52879 -12.5497 -78.4662 7.4234
RightUpLeg  -8.50803 -12.3151 -4.67103
RightLeg  15.4413 4.97915 3.52855
RightFoot  -0.209206 -0.0271836 0.263457
RightToes  5.47152e-009 0 -3.6325e-017
Spine  13.5104 -3.89083 10.7099
Spine1  11.242 -1.99585 -3.93687
HEad  -10.3373 -12.7285 0.839125
LeftShoulder1  1.56818 -4.10038 -13.667
LeftArm  -5.42783 -49.7595 -52.3801
LeftForeArm  -22.3562 -38.4722 -10.1175
LeftHand  -0.09552 9.50094 -1.16757
RightShoulder  0.452675 -0.260012 6.28614
RightArm  -23.5914 49.4141 16.8025
RightForeArm  -39.1298 30.2964 8.34705
RightHand  0.117069 -1.13954 3.36594
LeftUpLeg  -20.5282 -0.62892 2.91223
LeftLeg  27.4731 -7.36487 -3.81274
LeftFoot  -6.68781 0.411429 -9.12318
LeftToes  -4.29285e-010 1.49941e-010 2.15559e-012
97
root  -54.3309 40.0985 3.75993 -12.414 -80.0089 6.85352
RightUpLeg  -7.52699 -11.7311 -4.50112
RightLeg  15.7342 5.99965 3.58832
RightFoot  -1.10196 -0.0620222 0.6086
RightToes  5.47152e-009 0 -3.6325e-017
Spine  13.2182 -3.74142 10.7559
Spine1  11.2693 -1.87413 -3.80039
HEad  -8.40941 -12.8732 1.05803
LeftShoulder1  1.54947 -3.67698 -14.7166
LeftArm  -5.67548 -46.3458 -51.8104
LeftForeArm  -21.7225 -41.5891 -11.1787
LeftHand  -0.0615884 9.44264 -0.255501
RightShoulder  0.485087 -0.204361 7.13606
RightArm  -22.871 47.663 18.9587
RightForeArm  -37.8898 33.3727 9.16889
RightHand  0.172416 -0.510819 4.18972
LeftUpLeg  -20.7663 -1.08533 4.13653
LeftLeg  27.4237 -7.96666 -4.14279
LeftFoot  -5.83411 0.492926 -9.51714
LeftToes  -4.29285e-010 1.49941e-010 2.15559e-012
98
root  -54.8026 40.0676 4.06343 -12.3619 -82.2985 6.44952
RightUpLeg  -6.8236 -11.1927 -4.25341
RightLeg  16.1845 7.75074 3.81907
RightFoot  -2.01422 -0.0753652 0.749575
RightToes  5.47152e-009 0 -3.6325e-017
Spine  12.6918 -3.25616 10.9545
Spine1  11.4289 -1.42706 -3.50408
HEad  -6.67202 -13.2353 1.2466
LeftShoulder1  1.50916 -3.1764 -15.8074
LeftArm  -5.81917 -42.6158 -51.5068
LeftForeArm  -20.9963 -44.9971 -12.4764
LeftHand  -0.0298111 9.05755 0.605518
RightShoulder  0.478696 -0.331326 7.61778
RightArm  -21.9182 46.0662 21.0031
RightForeArm  -38.2632 35.9855 9.96328
RightHand  0.113968 -1.10135 3.2873
LeftUpLeg  -20.5494 -2.03301 5.73474
LeftLeg  26.8514 -9.0851 -4.64182
LeftFoot  -4.53733 0.602277 -9.64532
LeftToes  -4.29285e-010 1.49941e-010 2.15559e-012
